# xmcd
#
# Track frame offsets:
#	150
#	13939
#	29726
#	47948
#	65123
#	78600
#	96525
#	110857
#	125608
#	140015
#	151201
#	163480
#	176440
#	189861
#	200870
#	213389
#	230767
#	244729
#
# Disc length: 3415 seconds
#
# Revision: 1
# Processed by: cddbd v1.5.2PL0 Copyright (c) Steve Scherf et al.
# Submitted via: audiograbber 1.83.01
#
DISCID=200d5512
DTITLE=Various Artist - Hit Country Ultimate Party - Disc 1
DYEAR=2014
DGENRE=Country
TTITLE0=Lee Kernaghan - Ute Me
TTITLE1=Florida Georgia Line - Cruise
TTITLE2=Carrie Underwood - Last Name
TTITLE3=Luke Bryan - Country Girl (Shake it for me)
TTITLE4=Miranda Lambert - Mama's Broken Heart
TTITLE5=Zac Brown Band - Chicken Fried
TTITLE6=Jasmine Rae - One Guy One Girl
TTITLE7=The Wolfe Brothers - Lovin' in the Summertime
TTITLE8=Dean Brody - It's Friday
TTITLE9=Catherine Britt - Under My Thumb
TTITLE10=Jonah's Road - Giddy Up
TTITLE11=Steve Forde - Summer's Little Angel
TTITLE12=Shea Fisher - Make You Want To
TTITLE13=Kissing Pollyanna - Mountain Boy
TTITLE14=Tim Hicks - Greasy John Deere Cap
TTITLE15=Jetty Road - City Lights
TTITLE16=Courtney Conway - Girly Girl
TTITLE17=Davidson Brothers - Born to Play
EXTD=
EXTT0=
EXTT1=
EXTT2=
EXTT3=
EXTT4=
EXTT5=
EXTT6=
EXTT7=
EXTT8=
EXTT9=
EXTT10=
EXTT11=
EXTT12=
EXTT13=
EXTT14=
EXTT15=
EXTT16=
EXTT17=
PLAYORDER=
